<svg xmlns="http://www.w3.org/2000/svg" viewBox="0 0 512 512">
  <!-- Radial Glow -->
  <circle cx="256" cy="256" r="250" fill="#0051d5" opacity="0.05" />
  
  <!-- Logo Box (Rotated 12 degrees) -->
  <g transform="rotate(12, 256, 256)">
    <!-- Box Background -->
    <rect x="100" y="100" width="312" height="312" rx="72" fill="#0051d5" />
    
    <!-- Hexagon (Counter-rotated -12 degrees so it stands upright) -->
    <g transform="rotate(-12, 256, 256) translate(136, 136) scale(10)">
      <path d="M21 16V8a2 2 0 0 0-1-1.73l-7-4a2 2 0 0 0-2 0l-7 4A2 2 0 0 0 3 8v8a2 2 0 0 0 1 1.73l7 4a2 2 0 0 0 2 0l7-4A2 2 0 0 0 21 16z" fill="none" stroke="#ffffff" stroke-width="2.5" stroke-linecap="round" stroke-linejoin="round" />
    </g>
  </g>
</svg>
